<?xml version="1.0"?>
<svg xmlns="http://www.w3.org/2000/svg" xmlns:xlink="http://www.w3.org/1999/xlink" version="1.1" id="Capa_1" x="0px" y="0px" viewBox="0 0 512 512" style="enable-background:new 0 0 512 512;" xml:space="preserve" width="512px" height="512px" class=""><g><rect style="fill:#808080" width="512" height="512" data-original="#D80027" class="" data-old_color="#D80027"/><rect style="fill:#FFFFFF" width="256" height="256" data-original="#0052B4" class="active-path" data-old_color="#0052B4"/><polygon style="fill:#808080" points="211.478,128 177.368,144.046 195.532,177.08 158.493,169.994 153.799,207.411 128,179.891   102.201,207.411 97.508,169.994 60.467,177.079 78.631,144.043 44.522,128 78.632,111.955 60.467,78.921 97.507,86.006   102.201,48.589 128,76.109 153.799,48.589 158.493,86.006 195.533,78.921 177.369,111.957 " data-original="#F0F0F0" class="" data-old_color="#F0F0F0"/><circle style="fill:#FFFFFF" cx="128" cy="128" r="51.989" data-original="#0052B4" class="active-path" data-old_color="#0052B4"/><path style="fill:#808080" d="M128,155.703c-15.274,0-27.703-12.427-27.703-27.703s12.427-27.703,27.703-27.703  c15.274,0,27.703,12.427,27.703,27.703S143.274,155.703,128,155.703z" data-original="#F0F0F0" class="" data-old_color="#F0F0F0"/></g> </svg>
