<svg width="4201" height="2667" viewBox="0 0 4201 2667" fill="none" xmlns="http://www.w3.org/2000/svg">
<path d="M383.711 2407.91C383.711 2407.91 122.461 2200.68 304.628 1705.31C412.023 1413.28 774.308 1458.12 755.977 933.591C737.651 409.072 1071.57 180.422 1670.19 418.494C1821.85 478.806 2000.08 422.146 2190.74 365.484C2543.16 260.742 2937.95 155.993 3285.47 790.157C3492 1167.05 3853.45 1118.22 3949.68 1807.48C3975.97 1995.88 3936.53 2193.12 3741.64 2407.91H383.711" fill="#D6DCD9"/>
<path d="M2120.27 935.38C2124.94 939.117 2129.48 943.431 2133.76 948.393C2141.91 957.868 2149.4 975.956 2150.22 988.518C2150.32 989.871 2150.37 991.197 2150.43 992.522C2152.94 1073.49 2060.18 1111.75 2006.29 1050.48C1999.27 1042.46 1992.84 1028.53 1990.25 1016.49C1989.68 1013.68 1989.26 1010.99 1989.14 1008.57C1988.46 997.132 1989.62 986.53 1992.36 976.858C2007.96 921.733 2073.24 898.315 2120.27 935.38V935.38ZM1961.42 1157.87L1992.68 1134.34C1995.3 1132.41 1998.77 1132.13 2001.64 1133.62C2005.32 1135.54 2009.11 1137.3 2013 1138.92C2020.22 1141.95 2027.49 1144.38 2034.8 1146.14C2038.23 1146.97 2040.81 1149.78 2041.33 1153.29L2047.49 1194.1C2048.12 1198.47 2051.97 1201.62 2056.36 1201.32L2093.45 1198.83C2097.65 1198.54 2100.93 1195.1 2101.14 1190.86L2102.72 1152.86C2102.79 1149.17 2105.33 1145.98 2108.95 1144.98C2124.21 1140.74 2138.78 1134.01 2152.09 1125.08C2155.3 1122.92 2159.64 1123.3 2162.49 1125.94L2179.3 1141.54C2182.52 1144.48 2187.42 1144.57 2190.72 1141.66L2218.35 1116.8C2218.9 1116.29 2219.4 1115.74 2219.8 1115.12C2221.76 1112.2 2221.72 1108.23 2219.55 1105.32L2202.27 1081.58L2198.05 1075.82C2201.55 1069.77 2204.71 1063.35 2207.41 1056.7C2211.04 1047.73 2213.79 1038.57 2215.65 1029.46C2216.37 1025.99 2219.08 1023.3 2222.54 1022.78L2254.91 1017.77C2259.33 1017.05 2262.51 1013.06 2262.18 1008.55L2260.32 979.749L2259.75 971.501C2259.49 966.989 2255.88 963.394 2251.46 963.225L2220.21 961.843C2216.58 961.731 2213.43 959.292 2212.46 955.809C2209.38 945.433 2205.23 935.395 2200.05 925.963C2199.68 925.103 2199.25 924.355 2198.79 923.566C2198.61 923.298 2198.5 923.016 2198.37 922.734C2196.94 919.576 2197.58 915.882 2199.91 913.302L2224.8 885.528C2225.1 885.246 2225.34 884.88 2225.56 884.555C2227.7 881.341 2227.45 876.942 2224.91 873.967L2200.54 845.968C2197.59 842.584 2192.62 842.048 2189.02 844.741L2156.42 869.287C2153.69 871.401 2149.96 871.528 2147.03 869.695C2140.56 865.734 2133.69 862.195 2126.43 859.164C2122.58 857.557 2118.71 856.119 2114.81 854.864C2111.66 853.82 2109.31 851.071 2108.83 847.744L2102.89 808.522C2102.26 804.208 2098.43 801.064 2094.09 801.346L2057.42 803.855C2052.97 804.151 2049.45 807.761 2049.25 812.328L2047.99 842.387C2047.82 846.419 2044.99 849.76 2041.12 850.578C2025.91 853.581 2011.28 859.009 1997.69 866.58C1994.51 868.412 1990.48 867.947 1987.75 865.395L1963.11 842.598C1959.82 839.539 1954.77 839.525 1951.4 842.499L1923.93 867.144C1920.62 870.09 1920.12 875.166 1922.73 878.676L1923.73 880.072L1943.82 907.635C1945.97 910.581 1946.07 914.501 1944.12 917.602V917.645C1939.46 925.074 1935.36 933.012 1931.94 941.457C1930.1 945.969 1928.55 950.48 1927.15 955.076C1926.22 958.276 1923.57 960.617 1920.33 961.124L1887.48 966.214C1882.97 966.905 1879.75 971.007 1880.05 975.561L1882.49 1012.67C1882.56 1013.73 1882.85 1014.74 1883.22 1015.63C1884.52 1018.56 1887.39 1020.65 1890.67 1020.8L1915.64 1021.83C1918.71 1021.99 1921.46 1023.79 1922.84 1026.47C1923.21 1027.19 1923.48 1027.95 1923.66 1028.77C1927.56 1048.59 1935.32 1067.37 1946.48 1084.11C1948.43 1086.93 1948.38 1090.63 1946.62 1093.5C1946.37 1093.9 1946.07 1094.29 1945.75 1094.67L1925.56 1117.14C1922.64 1120.38 1922.59 1125.36 1925.47 1128.7L1926.02 1129.36L1949.74 1156.67C1952.77 1160.08 1957.8 1160.59 1961.42 1157.87" fill="#B5C3C2"/>
<path d="M2358.19 611.827C2361.44 615.265 2364.48 619.117 2367.27 623.461C2372.56 631.717 2376.41 646.62 2375.69 656.473C2375.63 657.532 2375.52 658.575 2375.43 659.619C2368.57 722.788 2292.34 742.126 2257.15 688.472C2252.57 681.458 2249.1 669.917 2248.39 660.263C2248.24 658.023 2248.21 655.889 2248.39 653.986C2249.1 645.023 2251.15 636.92 2254.33 629.707C2272.43 588.653 2325.69 577.771 2358.19 611.827ZM2210.61 766.881L2237.46 752.102C2239.7 750.889 2242.42 751.058 2244.5 752.547C2247.15 754.435 2249.9 756.246 2252.74 757.934C2258.01 761.095 2263.41 763.796 2268.91 765.991C2271.49 767.019 2273.18 769.475 2273.18 772.268L2273.55 804.666C2273.55 808.135 2276.2 811.02 2279.65 811.266L2308.74 813.491C2312.03 813.737 2314.95 811.435 2315.58 808.166L2320.93 778.822C2321.4 775.967 2323.71 773.772 2326.63 773.404C2338.94 771.808 2351 768.216 2362.32 762.768C2365.04 761.464 2368.38 762.231 2370.29 764.595L2381.64 778.607C2383.83 781.246 2387.64 781.876 2390.53 779.988L2414.67 763.766C2415.17 763.428 2415.62 763.075 2415.99 762.63C2417.83 760.589 2418.24 757.489 2416.86 754.987L2406.03 734.606L2403.36 729.649C2406.75 725.351 2409.9 720.717 2412.72 715.851C2416.52 709.283 2419.64 702.484 2422.08 695.608C2423.01 692.999 2425.4 691.204 2428.15 691.204L2453.85 690.927C2457.36 690.881 2460.26 688.134 2460.5 684.589L2462.18 661.998L2462.65 655.536C2462.92 652.007 2460.52 648.799 2457.09 648.17L2432.96 643.596C2430.16 643.105 2427.97 640.864 2427.61 638.041C2426.34 629.63 2424.19 621.373 2421.21 613.454C2421 612.748 2420.75 612.119 2420.47 611.459C2420.37 611.229 2420.31 610.998 2420.25 610.768C2419.49 608.159 2420.37 605.351 2422.45 603.616L2444.83 584.831C2445.09 584.632 2445.32 584.386 2445.53 584.156C2447.54 581.9 2447.82 578.462 2446.16 575.853L2430.27 551.374C2428.36 548.412 2424.55 547.445 2421.46 549.118L2393.47 564.542C2391.12 565.877 2388.21 565.555 2386.13 563.805C2381.54 559.999 2376.58 556.485 2371.26 553.308C2368.45 551.635 2365.6 550.085 2362.71 548.673C2360.37 547.506 2358.86 545.112 2358.84 542.473L2358.49 511.333C2358.46 507.91 2355.83 505.04 2352.43 504.779L2323.67 502.616C2320.19 502.339 2317.05 504.749 2316.4 508.279L2312.15 531.484C2311.58 534.599 2309.02 536.886 2305.93 537.07C2293.79 537.715 2281.81 540.293 2270.45 544.637C2267.79 545.711 2264.71 544.897 2262.85 542.611L2246.2 522.137C2243.96 519.39 2240.05 518.822 2237.1 520.756L2213.09 536.809C2210.19 538.728 2209.25 542.611 2210.9 545.634L2211.52 546.831L2224.14 570.497C2225.5 573.029 2225.15 576.083 2223.29 578.278V578.309C2218.85 583.557 2214.81 589.267 2211.23 595.436C2209.31 598.736 2207.62 602.082 2206.03 605.489C2204.96 607.868 2202.65 609.387 2200.08 609.418L2173.99 609.694C2170.42 609.725 2167.47 612.548 2167.22 616.124L2165.07 645.223C2165.03 646.052 2165.13 646.865 2165.33 647.602C2166.01 650.027 2168.02 651.961 2170.56 652.467L2189.84 656.058C2192.19 656.519 2194.14 658.237 2194.93 660.478C2195.13 661.061 2195.28 661.691 2195.31 662.351C2196.18 678.174 2200.19 693.644 2207.03 707.901C2208.23 710.296 2207.79 713.181 2206.13 715.207C2205.88 715.483 2205.6 715.759 2205.31 716.005L2187.19 731.199C2184.58 733.409 2183.99 737.261 2185.86 740.177L2186.23 740.76L2201.68 764.625C2203.66 767.618 2207.5 768.585 2210.61 766.881" fill="#B5C3C2"/>
<path d="M3595.58 1787.24C3599.58 1791.47 3603.35 1796.24 3606.78 1801.6C3613.32 1811.8 3618.07 1830.2 3617.18 1842.36C3617.11 1843.66 3616.97 1844.95 3616.86 1846.24C3608.4 1924.25 3514.27 1948.11 3470.83 1881.87C3465.17 1873.2 3460.87 1858.96 3459.98 1847.04C3459.82 1844.28 3459.77 1841.64 3459.98 1839.29C3460.87 1828.22 3463.41 1818.23 3467.34 1809.32C3489.69 1758.61 3555.45 1745.17 3595.58 1787.24V1787.24ZM3413.38 1978.66L3446.5 1960.43C3449.28 1958.93 3452.64 1959.14 3455.2 1960.97C3458.47 1963.32 3461.88 1965.55 3465.37 1967.64C3471.88 1971.53 3478.56 1974.88 3485.34 1977.57C3488.52 1978.84 3490.62 1981.89 3490.62 1985.33L3491.06 2025.34C3491.08 2029.61 3494.35 2033.17 3498.6 2033.49L3534.52 2036.24C3538.59 2036.55 3542.2 2033.71 3542.95 2029.65L3549.58 1993.44C3550.15 1989.89 3553.01 1987.2 3556.62 1986.73C3571.82 1984.77 3586.69 1980.33 3600.66 1973.61C3604.04 1971.98 3608.15 1972.95 3610.5 1975.87L3624.56 1993.16C3627.23 1996.43 3631.94 1997.2 3635.5 1994.87L3665.33 1974.84C3665.94 1974.43 3666.49 1973.97 3666.95 1973.43C3669.21 1970.91 3669.71 1967.09 3668.02 1964L3654.63 1938.84L3651.36 1932.72C3655.52 1927.4 3659.41 1921.68 3662.88 1915.67C3667.59 1907.57 3671.45 1899.17 3674.47 1890.69C3675.61 1887.45 3678.56 1885.24 3681.96 1885.24L3713.68 1884.91C3718.02 1884.84 3721.61 1881.45 3721.91 1877.07L3723.96 1849.18L3724.56 1841.2C3724.88 1836.84 3721.93 1832.88 3717.7 1832.11L3687.9 1826.47C3684.43 1825.85 3681.73 1823.08 3681.28 1819.6C3679.7 1809.21 3677.07 1799.01 3673.37 1789.25C3673.14 1788.37 3672.82 1787.6 3672.48 1786.77C3672.36 1786.49 3672.27 1786.21 3672.2 1785.93C3671.27 1782.69 3672.36 1779.24 3674.95 1777.09L3702.55 1753.89C3702.87 1753.65 3703.15 1753.35 3703.42 1753.05C3705.89 1750.27 3706.25 1746.02 3704.2 1742.81L3684.57 1712.58C3682.21 1708.93 3677.51 1707.73 3673.69 1709.81L3639.14 1728.85C3636.24 1730.51 3632.65 1730.1 3630.07 1727.95C3624.4 1723.24 3618.27 1718.9 3611.72 1714.98C3608.24 1712.9 3604.72 1711 3601.16 1709.25C3598.28 1707.81 3596.4 1704.86 3596.38 1701.6L3595.95 1663.15C3595.92 1658.92 3592.66 1655.37 3588.45 1655.05L3552.94 1652.38C3548.64 1652.04 3544.78 1655.01 3543.98 1659.38L3538.73 1688.04C3538.02 1691.88 3534.89 1694.69 3531.05 1694.93C3516.06 1695.72 3501.27 1698.91 3487.24 1704.28C3483.95 1705.6 3480.13 1704.59 3477.87 1701.77L3457.3 1676.49C3454.52 1673.09 3449.69 1672.39 3446.06 1674.77L3416.4 1694.61C3412.83 1696.98 3411.67 1701.77 3413.7 1705.51L3414.48 1706.99L3430.07 1736.2C3431.73 1739.33 3431.3 1743.1 3429.01 1745.81L3428.99 1745.85C3423.53 1752.32 3418.55 1759.37 3414.11 1767C3411.76 1771.06 3409.66 1775.2 3407.69 1779.4C3406.37 1782.35 3403.53 1784.23 3400.36 1784.27L3368.14 1784.6C3363.75 1784.62 3360.09 1788.12 3359.77 1792.53L3357.14 1828.47C3357.08 1829.49 3357.21 1830.49 3357.44 1831.41C3358.29 1834.38 3360.75 1836.78 3363.91 1837.4L3387.72 1841.84C3390.62 1842.42 3393.02 1844.53 3394 1847.29C3394.26 1848.03 3394.39 1848.8 3394.46 1849.61C3395.54 1869.16 3400.47 1888.24 3408.93 1905.85C3410.41 1908.81 3409.89 1912.37 3407.81 1914.86C3407.51 1915.23 3407.17 1915.56 3406.8 1915.86L3384.43 1934.64C3381.21 1937.34 3380.5 1942.1 3382.78 1945.72L3383.24 1946.42L3402.32 1975.9C3404.77 1979.6 3409.52 1980.79 3413.38 1978.66" fill="#B5C3C2"/>
<path d="M3706.87 1527.43C3709 1529.68 3711.01 1532.24 3712.87 1535.11C3716.36 1540.56 3718.89 1550.4 3718.43 1556.92C3718.38 1557.61 3718.31 1558.29 3718.24 1558.99C3713.72 1600.72 3663.36 1613.5 3640.13 1578.05C3637.09 1573.41 3634.8 1565.79 3634.31 1559.41C3634.24 1557.93 3634.22 1556.52 3634.31 1555.27C3634.8 1549.35 3636.16 1544 3638.25 1539.24C3650.23 1512.11 3685.39 1504.92 3706.87 1527.43ZM3609.38 1629.84L3627.11 1620.08C3628.59 1619.28 3630.4 1619.4 3631.76 1620.38C3633.52 1621.63 3635.33 1622.81 3637.21 1623.93C3640.7 1626.01 3644.25 1627.81 3647.89 1629.25C3649.58 1629.93 3650.71 1631.56 3650.71 1633.4L3650.94 1654.8C3650.94 1657.09 3652.7 1659 3654.97 1659.16L3674.2 1660.64C3676.38 1660.8 3678.3 1659.28 3678.72 1657.11L3682.26 1637.73C3682.57 1635.84 3684.09 1634.4 3686.02 1634.15C3694.15 1633.11 3702.12 1630.73 3709.6 1627.13C3711.38 1626.27 3713.58 1626.78 3714.86 1628.33L3722.36 1637.59C3723.8 1639.33 3726.33 1639.75 3728.23 1638.49L3744.19 1627.79C3744.51 1627.56 3744.79 1627.33 3745.04 1627.03C3746.25 1625.68 3746.53 1623.64 3745.62 1621.99L3738.46 1608.52L3736.7 1605.26C3738.95 1602.41 3741.01 1599.35 3742.89 1596.13C3745.39 1591.8 3747.45 1587.31 3749.07 1582.77C3749.68 1581.04 3751.25 1579.85 3753.08 1579.85L3770.06 1579.68C3772.36 1579.64 3774.3 1577.83 3774.44 1575.48L3775.55 1560.56L3775.85 1556.29C3776.04 1553.96 3774.44 1551.84 3772.19 1551.43L3756.26 1548.41C3754.4 1548.08 3752.97 1546.6 3752.71 1544.73C3751.88 1539.17 3750.46 1533.72 3748.5 1528.49C3748.36 1528.03 3748.19 1527.61 3748.01 1527.17C3747.94 1527.03 3747.89 1526.88 3747.85 1526.72C3747.36 1524.99 3747.94 1523.15 3749.33 1522L3764.09 1509.59C3764.27 1509.45 3764.41 1509.29 3764.55 1509.14C3765.87 1507.64 3766.06 1505.38 3764.97 1503.65L3754.5 1487.48C3753.22 1485.54 3750.7 1484.9 3748.66 1486L3730.17 1496.19C3728.62 1497.07 3726.7 1496.86 3725.31 1495.7C3722.29 1493.19 3719.01 1490.87 3715.51 1488.78C3713.65 1487.66 3711.75 1486.64 3709.85 1485.71C3708.3 1484.94 3707.31 1483.35 3707.28 1481.62L3707.05 1461.04C3707.05 1458.77 3705.31 1456.88 3703.07 1456.71L3684.05 1455.28C3681.75 1455.09 3679.69 1456.68 3679.25 1459.01L3676.45 1474.35C3676.08 1476.41 3674.39 1477.92 3672.35 1478.04C3664.31 1478.45 3656.41 1480.16 3648.91 1483.04C3647.14 1483.75 3645.11 1483.2 3643.88 1481.7L3632.87 1468.17C3631.41 1466.36 3628.82 1465.97 3626.87 1467.25L3611.01 1477.87C3609.11 1479.14 3608.48 1481.7 3609.57 1483.7L3609.99 1484.5L3618.3 1500.12C3619.21 1501.79 3618.97 1503.81 3617.75 1505.25V1505.28C3614.83 1508.75 3612.14 1512.51 3609.78 1516.6C3608.53 1518.77 3607.39 1520.97 3606.35 1523.23C3605.65 1524.8 3604.13 1525.81 3602.41 1525.83L3585.18 1526.01C3582.84 1526.03 3580.89 1527.89 3580.7 1530.25L3579.31 1549.48C3579.27 1550.03 3579.34 1550.56 3579.45 1551.05C3579.92 1552.65 3581.24 1553.93 3582.91 1554.25L3595.67 1556.64C3597.2 1556.95 3598.5 1558.08 3599.03 1559.55C3599.14 1559.95 3599.24 1560.36 3599.26 1560.79C3599.84 1571.25 3602.48 1581.45 3607.02 1590.88C3607.81 1592.47 3607.51 1594.37 3606.42 1595.71C3606.26 1595.89 3606.07 1596.07 3605.86 1596.24L3593.91 1606.28C3592.17 1607.74 3591.78 1610.28 3593.03 1612.2L3593.26 1612.59L3603.48 1628.36C3604.77 1630.33 3607.32 1630.96 3609.38 1629.84" fill="#B5C3C2"/>
<path d="M765.531 1521.2C767.873 1523.68 770.085 1526.48 772.101 1529.61C775.938 1535.61 778.726 1546.4 778.204 1553.53C778.153 1554.29 778.08 1555.05 778.008 1555.8C773.05 1601.56 717.841 1615.56 692.35 1576.71C689.026 1571.63 686.506 1563.27 685.993 1556.28C685.895 1554.65 685.869 1553.11 685.995 1551.73C686.507 1545.24 688.004 1539.37 690.301 1534.15C703.416 1504.41 741.984 1496.53 765.531 1521.2V1521.2ZM658.648 1633.49L678.083 1622.79C679.71 1621.92 681.68 1622.04 683.187 1623.11C685.107 1624.48 687.094 1625.79 689.152 1627.01C692.979 1629.31 696.88 1631.27 700.86 1632.85C702.724 1633.59 703.956 1635.39 703.961 1637.4L704.222 1660.87C704.226 1663.37 706.152 1665.45 708.647 1665.64L729.711 1667.25C732.099 1667.44 734.211 1665.77 734.663 1663.4L738.544 1642.15C738.879 1640.08 740.554 1638.49 742.669 1638.21C751.591 1637.07 760.319 1634.47 768.509 1630.52C770.488 1629.57 772.904 1630.13 774.292 1631.84L782.52 1641.99C784.1 1643.91 786.86 1644.36 788.94 1642.99L806.436 1631.24C806.797 1631 807.119 1630.73 807.389 1630.41C808.72 1628.93 809.012 1626.69 808.021 1624.88L800.168 1610.12L798.246 1606.53C800.694 1603.41 802.973 1600.07 805.016 1596.53C807.769 1591.79 810.036 1586.85 811.797 1581.88C812.476 1579.99 814.206 1578.69 816.196 1578.68L834.806 1578.49C837.35 1578.45 839.452 1576.47 839.624 1573.89L840.844 1557.53L841.18 1552.85C841.373 1550.29 839.637 1547.97 837.159 1547.52L819.68 1544.21C817.651 1543.85 816.073 1542.23 815.798 1540.19C814.878 1534.09 813.334 1528.11 811.169 1522.37C811.019 1521.87 810.832 1521.41 810.638 1520.92C810.562 1520.76 810.52 1520.6 810.477 1520.43C809.923 1518.53 810.569 1516.51 812.08 1515.25L828.272 1501.64C828.465 1501.51 828.629 1501.32 828.781 1501.15C830.232 1499.52 830.442 1497.03 829.239 1495.15L817.736 1477.41C816.345 1475.27 813.592 1474.56 811.347 1475.77L791.08 1486.95C789.371 1487.92 787.268 1487.68 785.764 1486.41C782.435 1483.67 778.843 1481.12 774.997 1478.81C772.959 1477.6 770.893 1476.48 768.8 1475.45C767.105 1474.61 766.01 1472.88 765.998 1470.96L765.741 1448.41C765.723 1445.93 763.819 1443.85 761.356 1443.67L740.517 1442.09C738.001 1441.89 735.731 1443.64 735.256 1446.2L732.18 1463.01C731.769 1465.27 729.918 1466.92 727.68 1467.05C718.881 1467.51 710.213 1469.39 701.979 1472.53C700.045 1473.31 697.814 1472.72 696.476 1471.07L684.411 1456.24C682.793 1454.25 679.955 1453.83 677.829 1455.23L660.428 1466.87C658.334 1468.25 657.659 1471.07 658.852 1473.25L659.303 1474.12L668.434 1491.27C669.413 1493.09 669.166 1495.31 667.827 1496.89L667.814 1496.92C664.609 1500.72 661.681 1504.85 659.087 1509.33C657.705 1511.72 656.472 1514.13 655.322 1516.6C654.548 1518.33 652.873 1519.43 651.011 1519.45L632.119 1519.65C629.533 1519.67 627.396 1521.72 627.211 1524.31L625.664 1545.39C625.624 1545.99 625.704 1546.57 625.84 1547.11C626.339 1548.85 627.791 1550.27 629.627 1550.63L643.595 1553.23C645.303 1553.57 646.711 1554.81 647.283 1556.43C647.428 1556.85 647.526 1557.31 647.559 1557.79C648.194 1569.25 651.086 1580.45 656.047 1590.77C656.913 1592.52 656.601 1594.6 655.389 1596.07C655.212 1596.28 655.015 1596.47 654.797 1596.65L641.678 1607.65C639.776 1609.25 639.361 1612.04 640.711 1614.16L640.976 1614.57L652.172 1631.87C653.605 1634.03 656.391 1634.73 658.648 1633.49" fill="#B5C3C2"/>
<path d="M2689.32 962.355C2696.63 968.371 2703.68 975.316 2710.31 983.263C2722.91 998.428 2734.27 1027.2 2735.25 1047.06C2735.36 1049.19 2735.43 1051.29 2735.48 1053.39C2737.36 1181.3 2589.89 1239.24 2506.41 1141.04C2495.52 1128.19 2485.73 1106.03 2481.93 1086.94C2481.13 1082.51 2480.54 1078.24 2480.39 1074.41C2479.61 1056.34 2481.75 1039.63 2486.3 1024.42C2512.36 937.819 2616.02 902.575 2689.32 962.355V962.355ZM2432.77 1309.41L2482.72 1273.1C2486.93 1270.11 2492.39 1269.77 2496.91 1272.19C2502.66 1275.31 2508.59 1278.2 2514.68 1280.88C2526 1285.84 2537.43 1289.88 2548.95 1292.85C2554.32 1294.25 2558.34 1298.74 2559.04 1304.32L2567.73 1368.93C2568.61 1375.82 2574.61 1380.92 2581.56 1380.54L2640.18 1377.61C2646.82 1377.26 2652.09 1371.93 2652.52 1365.22L2656.02 1305.29C2656.22 1299.45 2660.31 1294.49 2666.04 1293C2690.25 1286.71 2713.43 1276.47 2734.66 1262.72C2739.81 1259.41 2746.66 1260.12 2751.07 1264.34L2777.2 1289.44C2782.2 1294.16 2789.98 1294.44 2795.23 1289.93L2839.48 1251.41C2840.41 1250.63 2841.2 1249.79 2841.84 1248.81C2845 1244.26 2845.04 1237.98 2841.7 1233.33L2815.04 1195.39L2808.52 1186.16C2814.22 1176.72 2819.36 1166.66 2823.79 1156.22C2829.77 1142.16 2834.32 1127.78 2837.5 1113.45C2838.73 1107.98 2843.06 1103.8 2848.56 1103.09L2899.79 1096.03C2906.79 1095.02 2911.91 1088.81 2911.52 1081.67L2909.31 1036.14L2908.66 1023.1C2908.32 1015.98 2902.75 1010.2 2895.75 1009.81L2846.45 1006.81C2840.72 1006.53 2835.82 1002.6 2834.38 997.075C2829.77 980.596 2823.48 964.642 2815.56 949.604C2814.97 948.235 2814.31 947.054 2813.61 945.783C2813.34 945.371 2813.16 944.923 2812.98 944.477C2810.82 939.447 2811.91 933.622 2815.64 929.626L2855.68 886.44C2856.16 885.984 2856.54 885.415 2856.91 884.905C2860.34 879.888 2860.09 872.953 2856.13 868.179L2818.39 823.31C2813.82 817.905 2806 816.925 2800.23 821.06L2748.14 858.968C2743.75 862.235 2737.88 862.326 2733.29 859.349C2723.18 852.929 2712.41 847.161 2701.02 842.173C2695 839.525 2688.93 837.167 2682.81 835.081C2677.84 833.358 2674.23 828.95 2673.56 823.69L2665.18 761.587C2664.31 754.749 2658.34 749.688 2651.47 750.015L2593.48 753.008C2586.48 753.352 2580.82 758.957 2580.38 766.176L2577.61 813.606C2577.23 819.954 2572.7 825.16 2566.57 826.339C2542.47 830.674 2519.2 838.872 2497.57 850.444C2492.5 853.273 2486.14 852.402 2481.89 848.321L2443.61 811.665C2438.47 806.75 2430.5 806.587 2425.11 811.194L2381.07 849.374C2375.77 853.944 2374.88 861.927 2378.91 867.549L2380.45 869.779L2411.45 913.837C2414.77 918.556 2414.84 924.743 2411.7 929.589L2411.64 929.651C2404.11 941.245 2397.43 953.671 2391.82 966.924C2388.8 973.987 2386.23 981.09 2383.89 988.298C2382.36 993.325 2378.11 996.953 2372.98 997.677L2320.97 1004.83C2313.84 1005.79 2308.64 1012.19 2309.02 1019.39L2311.89 1078.05C2312 1079.72 2312.41 1081.31 2312.98 1082.75C2314.95 1087.39 2319.43 1090.76 2324.61 1091.11L2364.02 1093.39C2368.84 1093.73 2373.14 1096.65 2375.27 1100.92C2375.8 1102.05 2376.23 1103.28 2376.48 1104.57C2382.13 1135.96 2393.91 1165.81 2411.11 1192.55C2414.07 1197.04 2413.93 1202.91 2411.07 1207.37C2410.66 1208 2410.18 1208.61 2409.64 1209.19L2377.22 1244.14C2372.5 1249.19 2372.3 1257.04 2376.75 1262.4L2377.63 1263.45L2414.38 1307.2C2419.05 1312.67 2426.97 1313.62 2432.77 1309.41" fill="#B5C3C2"/>
<path d="M881.237 1195.27C896.871 1114.71 1029.91 1130.08 1029.91 1130.08C1029.91 1130.08 1128.63 1262.09 1154.8 1263.53C1180.97 1264.99 1092.1 1133.93 1092.1 1133.93C1142.02 1125.43 1274.43 1178.91 1274.43 1178.91C1274.43 1178.91 1277.45 1340.88 1303.16 1335.75C1328.88 1330.61 1293.29 1192.45 1293.29 1192.45C1342.97 1203.83 1392.34 1258.24 1392.34 1258.24C1455.56 1348.08 1338.7 1425.91 1338.7 1425.91C1338.7 1425.91 1340.94 1482.01 1379.42 1543.83C1379.42 1543.83 1387.93 1555.15 1397.13 1574.75L1383.86 1575.68C1382.53 1572.15 1381.1 1568.75 1379.54 1565.48L1379.51 1565.43L1379.45 1565.29C1378.4 1563.27 1376.89 1560.4 1375.01 1556.91L1375 1556.89L1374.98 1556.88C1370.39 1549.11 1367.24 1543.35 1365.2 1539.19L1365.19 1539.15C1351.31 1514.72 1331.55 1483.01 1319.4 1476.92C1319.4 1476.92 1320.73 1474.72 1321.82 1470.55C1321.06 1472.57 1320.26 1474.71 1319.4 1476.92C1300.11 1527.95 1187.18 1544.25 1123.03 1535.57C1058.88 1526.89 1085.2 1506.81 1117.22 1474.99C1149.25 1443.16 1221.13 1445.84 1241.42 1432.81C1261.7 1419.79 1230.1 1410.45 1188.17 1416.75C1146.23 1423.03 1128.1 1467.35 1060.46 1478.79C992.807 1490.21 931.955 1363.79 931.955 1363.79C980 1375.27 1062.5 1342.92 1064.61 1326.21C1066 1315.21 1012.28 1316.03 969.829 1316.85C947.871 1317.27 928.926 1317.69 922.178 1316.48C902.379 1312.92 865.605 1275.81 881.237 1195.27" fill="#B5C3C2"/>
<path d="M1952.82 1501.71L1882.45 2351.56C1882.45 2351.56 1875.08 2403.08 1912.81 2403.17C1974.83 2403.32 2221.55 2403.17 2221.55 2403.17C2221.55 2403.17 2174.86 2392.45 2175.42 2368.32C2176.1 2339.88 2257.68 1493.67 2257.68 1493.67L1952.82 1501.71Z" fill="#595959"/>
<path d="M2241.59 2387.75C2229.38 2387.78 1993.73 2388.53 1933.32 2387.75C1907 2387.41 1902.38 2363.97 1902.17 2348.8C1902.06 2341.53 1902.96 2336.15 1902.96 2336.15L1904.8 2314.07L1909.45 2257.76L1913.57 2208.02L1918.87 2144.11L1923.33 2090.16L1973.34 1486.28L2278.2 1478.24C2278.2 1478.24 2243.83 1832.37 2219.54 2090.16C2216.81 2118.88 2214.23 2146.43 2211.85 2172.13C2211.08 2180.33 2210.33 2188.36 2209.61 2196.17C2207.35 2220.56 2205.29 2242.96 2203.51 2262.73C2202.55 2273.16 2201.67 2282.84 2200.89 2291.72C2197.79 2326.48 2195.99 2348.68 2195.96 2352.91C2195.94 2355.36 2196.15 2357.65 2196.54 2359.79C2201.55 2386.87 2237.01 2387.75 2241.59 2387.75" fill="#BCBCBC"/>
<path d="M1212.46 1039.24L1383.87 1738.57L1407.33 1834.34L1487.17 2160.08H2970.35L2676.09 1039.24H1212.46Z" fill="#BCBCBC"/>
<path d="M1212.46 1039.24L1188.7 1047.29L1455.58 2184.4L1487.17 2160.08L1212.46 1039.24Z" fill="#595959"/>
<path d="M1455.59 2184.4H2929.64L2970.35 2160.08H1487.17L1455.59 2184.4Z" fill="#595959"/>
<path d="M1973.22 2403.49H2292.38V2388.09H1973.22V2403.49Z" fill="#BCBCBC"/>
<path d="M2209.6 2196.17C2209.96 2192.31 2210.32 2188.37 2210.69 2184.4H2211.25L2209.6 2196.17Z" fill="#99B6E8"/>
<path d="M1909.45 2257.76L1913.57 2208.03L1915.53 2184.4H2210.69C2210.32 2188.37 2209.96 2192.31 2209.6 2196.17L1909.45 2257.76Z" fill="#BCBCBC"/>
<path d="M2241.59 2387.75C2229.37 2387.79 1993.73 2388.53 1933.32 2387.75C1907 2387.41 1902.38 2363.97 1902.17 2348.8L2200.89 2291.72C2197.8 2326.48 2195.98 2348.68 2195.96 2352.91C2195.94 2355.36 2196.15 2357.65 2196.55 2359.78C2201.55 2386.86 2237.01 2387.75 2241.59 2387.75" fill="#BCBCBC"/>
<path d="M2138.7 1933.17L1487.17 2160.08L1407.33 1834.35L2138.7 1933.17Z" fill="#BCBCBC"/>
<path d="M1212.45 1039.25H2676.09L2911.77 1940.04H1433.32L1212.45 1039.25Z" fill="#E8E8EA"/>
<path d="M2277.55 1562.31V1891.79H1763.44V1562.31H2277.55Z" fill="#658280"/>
<path d="M2534.62 1562.32V1891.79H2020.51V1562.32H2534.62Z" fill="#658280"/>
<path d="M2020.51 1610.99L1912.14 1721.05H1763.75V1562.31H2020.51V1610.99Z" fill="#B5C3C2" fill-opacity="0.52"/>
<path d="M1763.45 1562.31L1647.87 1675.6H1905.08L2020.51 1562.31H1763.45" fill="#658280"/>
<path d="M2534.62 1573.98L2020.51 1562.32V1604.05V1610.88L2116.1 1717.33H2534.62V1611.36L2531.96 1608.2H2534.62V1573.98" fill="#B5C3C2" fill-opacity="0.52"/>
<path d="M2020.5 1562.31L2122.23 1675.6H2629.54L2534.62 1562.31H2020.5Z" fill="#658280"/>
<path d="M1124.66 1520.61C1124.66 1520.61 1128.23 1481.05 1084.71 1481.05C1084.71 1481.05 1097.89 1484.68 1104.72 1491.95C1104.72 1491.95 1076.96 1475.4 1046.74 1500.83C1016.53 1526.27 1035.31 1590.07 1026.12 1602.17C1016.93 1614.29 981.155 1616.71 985.527 1655.88C989.9 1695.04 1099.07 1744.09 1092.06 1776.49C1092.06 1776.49 1134.84 1712.61 1104.25 1683.47C1104.25 1683.47 1119.16 1697.73 1120.68 1714.69C1120.68 1714.69 1124.73 1681.59 1103.99 1670.99C1085.63 1661.61 1070.59 1627.35 1072.18 1621.23C1073.77 1615.09 1124.66 1520.61 1124.66 1520.61" fill="#2F2E41"/>
<path d="M1081.81 1710.6C1081.81 1710.6 1114.32 1847.23 1146.24 1874.55C1165.43 1890.96 1222.48 1928.64 1222.48 1928.64L1198.75 1937.39C1198.75 1937.39 1119.62 1910.25 1101.91 1889.09C1084.19 1867.93 1035.69 1761.93 1035.69 1761.93L1081.81 1710.6" fill="#FFB27D"/>
<path d="M1268.98 1978.59L1261.33 1959.36C1253.14 1938.75 1233.45 1925.25 1211.56 1925.25H1070.6V2016.11V2403.99H1653.72V2016.11H1323.75C1299.66 2016.11 1277.99 2001.27 1268.98 1978.59Z" fill="#658280"/>
<path d="M1158.56 2216.37V2181.87L1277.72 2128.85V2164.11L1194.5 2198.87L1277.72 2233.63V2269.39L1158.56 2216.37" fill="white"/>
<path d="M1401.55 2087.59H1433.32L1324.25 2319.16H1292.49L1401.55 2087.59Z" fill="white"/>
<path d="M1565.77 2181.87V2216.37L1446.6 2269.39V2234.13L1529.83 2199.37L1446.6 2164.61V2128.85L1565.77 2181.87" fill="white"/>
<path d="M776.195 1950.64C776.481 1951.17 776.786 1951.71 777.09 1952.25C784.207 1964.81 800.53 1995.59 818.509 2029.28C827.013 2045.25 835.917 2061.89 844.364 2077.55C858.919 2104.56 872.159 2128.63 879.885 2141.33C887.742 2154.27 893.526 2163.35 895.867 2166.99L895.885 2167C896.589 2168.12 896.741 2169.44 896.647 2170.75C895.827 2182.15 896.056 2193.48 897.16 2204.63C908.004 2314.21 980.757 2372.95 980.757 2372.95L1002.39 2376.19C1002.39 2376.19 971.778 2261 962.76 2195.87C961.237 2184.84 960.572 2175.89 961.105 2170.05C962.702 2153.08 959.734 2128.17 954.122 2099.57C944.134 2048.76 925.812 1986.37 909.888 1936.44C908.88 1933.25 878.458 1821.48 878.458 1821.48C852.926 1844.15 759.795 1853.51 759.795 1853.51C759.795 1853.51 744.005 1892.49 776.195 1950.64" fill="#808080"/>
<path d="M1047.79 2403.99H957.508C957.508 2403.99 955.343 2390.01 960.06 2379.41C964.578 2369.24 971.018 2368.91 960.881 2352.96C966.618 2358.96 985.06 2361.44 998.112 2359.67C999.711 2362.29 1008.42 2379.96 1013.77 2383.85C1019.67 2388.16 1045.97 2386.63 1047.79 2403.99Z" fill="#2F2E41"/>
<path d="M776.195 1950.64C776.481 1951.17 776.786 1951.71 777.091 1952.25C784.207 1964.81 822.687 2037 840.666 2070.68C819.834 1983.63 834.323 1896.57 834.323 1896.57L776.195 1950.64Z" fill="#808080"/>
<path d="M1112.34 1515.05C1112.93 1512.64 1060.78 1539 1058.13 1541.97C1033.67 1569.53 1040.65 1605.49 1054.64 1605.84C1063.62 1606.07 1061.88 1621.23 1061.88 1621.23L1161.88 1578.25C1161.88 1578.25 1149.84 1506.95 1112.34 1515.05" fill="#2F2E41"/>
<path d="M1078.74 1690.08C1078.74 1690.08 1093.96 1720.95 1092.06 1746.01C1092.06 1746.01 1073.71 1775.43 1026.12 1782.88C1026.12 1782.88 1067.03 1690.05 1078.74 1690.08Z" fill="#F99746"/>
<path d="M846.579 1860.33L846.883 1843.17C813.241 1847.49 730.883 1802.35 730.883 1802.35C730.883 1802.35 695.687 1826.12 690.868 1894.03C688.517 1927.17 673.639 2067.33 671.994 2109.19C671.394 2124.36 671.194 2135.19 671.126 2139.51L671.131 2139.55C671.11 2140.87 670.5 2142.04 669.7 2143.08C662.739 2152.07 656.701 2161.59 651.471 2171.47C600.135 2268.48 626.981 2400.31 626.981 2400.31L638.902 2397.23C638.902 2397.23 682.309 2260.57 710.679 2201.45C715.494 2191.43 719.868 2183.64 723.527 2179.12C734.194 2165.96 745.442 2143.61 756.529 2116.72C777.486 2065.87 846.579 1860.33 846.579 1860.33" fill="#808080"/>
<path d="M698.774 2403.99H608.493C608.493 2403.99 606.328 2390.01 611.043 2379.41C615.563 2369.24 622.64 2364.61 620.945 2352.29C626.682 2358.29 636.032 2365.01 649.084 2363.24C650.683 2365.87 659.407 2379.96 664.75 2383.85C670.65 2388.16 696.959 2386.63 698.774 2403.99" fill="#2F2E41"/>
<path d="M1020.02 1802.57C1007.9 1804.67 1022 1814.47 1005.32 1816.31C981.584 1818.93 957.073 1820.73 944.234 1825.93C939.551 1827.84 936.419 1830.17 935.441 1833.17C929.875 1850.17 894.629 1879.39 894.629 1879.39C737.42 1872.11 727.295 1800.95 727.295 1800.95C829.326 1700.29 916.126 1645.44 987.864 1638.64C1005.32 1636.99 1028.86 1639.21 1039.9 1644.2C1064.99 1655.55 1078.74 1690.08 1078.74 1690.08C1078.74 1690.08 1066.1 1794.59 1020.02 1802.57" fill="black"/>
<path d="M1005.32 1816.31C981.584 1818.93 957.073 1820.73 944.234 1825.93C938.987 1746.31 975.987 1686.4 975.987 1686.4C975.987 1686.4 1000.12 1786.17 1005.32 1816.31Z" fill="black"/>
<path d="M1025.8 1672.92C1025.8 1672.92 966.106 1669.6 955.498 1707.68C944.89 1745.75 975.399 1897.71 981.974 1913.39C993.945 1941.95 1052.22 2023.44 1052.22 2023.44L1073.65 2016.81C1073.65 2016.81 1034.79 1892.31 1026.12 1879.99C1012.5 1860.65 1043.67 1689.48 1025.8 1672.92" fill="#FFB27D"/>
<path d="M1073.65 2016.81C1073.65 2016.81 1074.75 2026.47 1078.77 2031.44C1082.78 2036.43 1094.47 2048.49 1094.67 2055.55C1094.67 2055.55 1094.08 2058.68 1091.58 2058.11C1089.07 2057.53 1080.37 2048.79 1075.9 2049.41C1075.9 2049.41 1078.29 2063.56 1080.65 2067.55C1083.01 2071.53 1081.13 2088.43 1079.72 2091.87C1078.3 2095.31 1060.88 2073.4 1053.72 2063.63C1046.56 2053.84 1053.61 2014.16 1053.61 2014.16L1073.65 2016.81" fill="#FFB27D"/>
<path d="M943.724 1758.59C943.881 1759.48 1000.22 1769.11 1035.46 1750.95C1035.46 1750.95 1064.89 1657.28 1022.83 1661.76C980.757 1666.24 955.846 1679.69 954.787 1700.16C953.727 1720.61 943.724 1758.59 943.724 1758.59" fill="black"/>
<path d="M1038.56 1650.77C1043.04 1665.05 1058 1705.73 1078.74 1690.08C1078.03 1687.04 1082.39 1678.21 1087.53 1669.24C1094.09 1657.79 1101.91 1646.07 1101.91 1646.07L1068.12 1616L1066.11 1614.21C1057.27 1629.88 1048.58 1637.43 1040.97 1643.19C1038.66 1644.95 1037.68 1647.97 1038.56 1650.77Z" fill="#FFB27D"/>
<path d="M1101.91 1646.08C1101.91 1646.08 1094.1 1657.77 1087.53 1669.24C1066.53 1656.09 1066.51 1629.68 1068.12 1616L1101.91 1646.08Z" fill="#ED985F"/>
<path d="M1102.84 1661.15C1102.84 1661.15 1051.85 1632.33 1070.01 1600.35C1088.17 1568.37 1093.82 1543.12 1127.14 1560.16C1160.47 1577.21 1159.81 1593.09 1156.31 1605.27C1152.8 1617.43 1116.58 1667.83 1102.84 1661.15" fill="#FFB27D"/>
<path d="M1164.92 1586.61C1162.58 1572.41 1155.48 1571.05 1150.53 1572C1131.7 1540.37 1100.93 1552.72 1100.93 1552.72C1084.5 1573.67 1060.74 1577.24 1060.74 1577.24C1060.74 1577.24 1066.66 1588.41 1091.04 1595.35C1098.49 1597.45 1106.94 1596.17 1115.09 1593.39C1098.18 1602.97 1080.49 1606.64 1080.49 1606.64C1112.62 1609.63 1143.19 1579.79 1146.36 1576.6C1147.84 1581.23 1150.44 1590.91 1148.88 1597.97C1146.77 1607.6 1138.36 1625.01 1143.5 1627.27C1143.5 1627.27 1168.42 1607.91 1164.92 1586.61" fill="#2F2E41"/>
<path d="M1231.81 1928.71C1231.81 1928.71 1217.58 1939.55 1228.3 1946.64C1239.03 1953.72 1258.17 1955.64 1258.25 1950.99C1258.52 1935.39 1250.85 1924.28 1231.81 1928.71Z" fill="#FFB27D"/>
<path d="M3887.84 2412.31H230.984C228.826 2412.31 227.061 2410.51 227.061 2408.32V2407.48C227.061 2405.29 228.826 2403.49 230.984 2403.49H3887.84C3889.99 2403.49 3891.76 2405.29 3891.76 2407.48V2408.32C3891.76 2410.51 3889.99 2412.31 3887.84 2412.31Z" fill="#2E3552"/>
<path d="M3175.02 1444.45C3186.77 1443.33 3213.82 1446.54 3231.48 1471.02C3249.13 1495.5 3236.91 1524.37 3281.06 1546.61C3325.2 1568.85 3318.86 1596.9 3310.02 1632.09C3301.21 1667.28 3264.18 1709.81 3220.04 1707.73C3175.89 1705.66 3100.39 1613.34 3103.13 1582.38C3105.84 1551.44 3118.96 1547.73 3108.55 1527.26C3092.25 1495.2 3122.47 1449.52 3175.02 1444.45" fill="#2F2E41"/>
<path d="M3192.25 1591.29C3192.46 1590.97 3192.58 1590.78 3192.56 1590.77C3187.67 1589 3187.25 1581.74 3191.78 1551.56L3189.43 1551.66L3150.02 1553.58C3150.02 1553.58 3149.1 1565.94 3147.44 1577.48C3147.1 1579.77 3146.75 1582.04 3146.36 1584.16C3116.7 1614.16 3180.54 1627.72 3192.25 1591.29" fill="#FFB27D"/>
<path d="M3111.68 2403.49H3196.83C3196.83 2403.49 3198.87 2390.32 3194.42 2380.32C3190.16 2370.72 3183.53 2364.8 3182.92 2357.45C3177.52 2363.11 3170.87 2366.75 3158.54 2365.07C3157.03 2367.55 3148.81 2380.84 3143.79 2384.52C3138.21 2388.57 3113.41 2387.13 3111.68 2403.49" fill="#2F2E41"/>
<path d="M3211.63 2049.99C3203.7 2069.87 3197.59 2087.93 3199.52 2103.86V2103.96C3199.74 2105.72 3200.06 2107.44 3200.49 2109.16C3228.41 2222.62 3188.81 2370.39 3188.81 2370.39C3188.81 2370.39 3178.35 2372.85 3170.77 2373.53C3157.34 2374.75 3155.39 2370.69 3155.39 2370.69C3155.39 2370.69 3142.06 2250.2 3098.93 2019.85C3092.72 1986.58 3090.25 1968.17 3088.01 1938.6C3087.33 1929.74 3086.69 1919.89 3085.96 1908.34C3084.01 1877.3 3088.64 1825.05 3111.58 1811.33C3122.01 1805.06 3136.21 1806.78 3155.31 1822.06C3156.82 1823.28 3158.24 1824.72 3159.93 1825.94C3277.25 1911.72 3235.87 1989.32 3211.63 2049.99" fill="#808080"/>
<path d="M3199.51 2103.86C3198.19 2099.2 3155.98 1949.45 3155.27 1938.08C3153.76 1913.61 3209.52 1981.17 3211.63 2049.99C3203.71 2069.86 3197.6 2087.93 3199.51 2103.86Z" fill="#233862"/>
<path d="M3498.07 2221.49L3462.62 2142.85C3462.62 2142.85 3449.98 2146.45 3442.87 2154.72C3436.07 2162.65 3431.13 2161.24 3415.6 2150.29C3421.46 2159.47 3422.23 2164.86 3425.85 2176.95C3428.71 2177.29 3444.95 2193.25 3461.59 2197.65C3468.2 2199.4 3482.7 2226.72 3498.07 2221.49" fill="#2F2E41"/>
<path d="M3126.53 1845.84C3126.53 1845.84 3202.83 2115.24 3230.78 2132.59C3258.72 2149.92 3396.96 2184.41 3437.77 2192.69C3437.77 2192.69 3439.23 2181.48 3437.1 2170.16C3436.61 2167.64 3432.39 2158.6 3432.39 2158.6C3432.39 2158.6 3359.83 2084.84 3288.89 2074.51C3274.06 2072.35 3294.86 1836.77 3194.11 1827.55C3102.08 1819.11 3126.53 1845.84 3126.53 1845.84" fill="#808080"/>
<path d="M3013.42 1421.88C3013.42 1421.88 3015.12 1413.26 3017.06 1406.66C3017.9 1403.75 3011.97 1384.59 3007.88 1382.23C3003.79 1379.88 2993.1 1392.78 2996.12 1402.68C2997.68 1407.76 3000.23 1424.32 3000.23 1424.32L3013.42 1421.88" fill="#FFB27D"/>
<path d="M3365.74 1437.89C3366.26 1438.98 3366.99 1440.94 3367.63 1442.78C3367.63 1442.28 3367.63 1441.78 3367.65 1441.3C3367.68 1437.64 3381.15 1417.72 3386.68 1416.46C3392.23 1415.22 3400.03 1433.89 3393.1 1444.2C3389.56 1449.5 3378.84 1468.4 3378.84 1468.4L3366.97 1461.1C3366.97 1461.1 3366.88 1456.02 3363.67 1451.9C3362.06 1449.82 3362 1440.05 3361.44 1435.8C3361.44 1435.8 3363.82 1433.86 3365.74 1437.89" fill="#FFB27D"/>
<path d="M3150.01 1553.59C3150.01 1553.59 3149.09 1565.95 3147.43 1577.48C3168.93 1580.11 3183.17 1561.98 3189.42 1551.67L3150.01 1553.59Z" fill="#ED975D"/>
<path d="M3196.81 1546.61C3196.81 1546.61 3211.89 1528.88 3217.27 1512.59C3221.1 1500.96 3221.6 1455.76 3176.83 1455.52C3176.83 1455.52 3163.92 1454.87 3150.76 1461.27C3140.29 1466.36 3124.49 1478.37 3134.18 1519.35L3136.25 1533L3196.81 1546.61" fill="#2F2E41"/>
<path d="M3139.52 1563.33C3139.52 1563.33 3194.45 1572.57 3199.6 1537.73C3204.73 1502.9 3215.28 1480.64 3180.43 1473.27C3145.57 1465.89 3136.78 1478.14 3132.3 1489.34C3127.8 1500.55 3125.36 1560.03 3139.52 1563.33" fill="#FFB27D"/>
<path d="M3149.98 1468.4C3149.98 1468.4 3164.56 1511.77 3186.83 1521.31C3209.07 1530.85 3220.03 1526.07 3220.03 1526.07C3220.03 1526.07 3204.37 1509.07 3204.37 1483.52C3204.37 1483.52 3164.19 1450.66 3149.98 1468.4" fill="#2F2E41"/>
<path d="M3158.73 1472.51C3158.73 1472.51 3148.62 1475.21 3139.62 1486.25C3133.71 1493.49 3131.64 1503.56 3128.99 1513.51C3128.99 1513.51 3121.7 1484.01 3136.76 1470.22C3152.72 1455.6 3158.73 1472.51 3158.73 1472.51Z" fill="#163560"/>
<path d="M3381.03 1468.56C3381.03 1468.56 3368.96 1568.63 3343.52 1592.55C3325.87 1609.14 3263.38 1635.93 3248.46 1660.61C3246.68 1663.56 3244.5 1671.9 3242.78 1684.29C3237.74 1720.57 3236.49 1791.41 3259.75 1862.55C3260.82 1865.84 3261.94 1869.13 3263.15 1872.43C3266.3 1881.21 3262.05 1890.94 3253.36 1894.08C3242.43 1898.04 3226.35 1903 3207.35 1906.31C3203.74 1906.95 3199.99 1907.51 3196.19 1908C3143.77 1914.76 3108.3 1902.27 3090.28 1893.03C3081.78 1888.67 3076.63 1879.58 3077.17 1869.92C3078.23 1850.17 3087.98 1830.64 3092.35 1783.16C3095.69 1747.13 3071.49 1696.33 3072.77 1677.16C3073.29 1669.59 3076.98 1635.93 3073.23 1630.72C3048.3 1595.94 3006.38 1562.64 2999.93 1530.89C2992.5 1494.28 2997.29 1421.24 2997.29 1421.24C2999.37 1420.51 3004.97 1418.25 3008.95 1418.25C3016 1418.24 3020.98 1424.85 3020.98 1424.85C3020.98 1424.85 3039.69 1496.01 3040.62 1500.8C3045.6 1526.32 3093.39 1563.31 3107.87 1570.72C3123.72 1578.86 3136.39 1583.23 3146.37 1584.17C3146.37 1584.17 3134.59 1604.85 3152.01 1607.72C3173 1611.17 3189.22 1586.67 3189.22 1586.67C3189.22 1586.67 3201.96 1590.3 3224.92 1586.87C3243.96 1584.02 3311.77 1560.75 3321.56 1543.08C3328.69 1530.23 3366.34 1458.97 3366.34 1458.97C3366.34 1458.97 3369.83 1456.91 3375.45 1459.88C3381.01 1462.81 3381.03 1468.56 3381.03 1468.56" fill="black"/>
<path d="M3259.75 1862.54C3259.75 1862.54 3212.59 1854.33 3209.47 1820.25C3206.13 1783.93 3242.75 1684.22 3242.75 1684.22L3242.79 1684.29C3237.73 1720.57 3236.49 1791.41 3259.75 1862.54" fill="black"/>
<path d="M3144.82 1023.85L3139.91 1005.54C3134.62 985.912 3118.16 971.5 3098.26 969.113L2970.14 953.74L2960.52 1036.32L2919.54 1388.91L3449.61 1452.49L3490.6 1099.92L3190.65 1063.93C3168.76 1061.31 3150.62 1045.44 3144.82 1023.85Z" fill="#658280"/>
<path d="M3019.32 1227.95L3022.98 1196.58L3136.91 1161.39L3133.17 1193.44L3053.85 1215.96L3125.82 1256.63L3122.05 1289.14L3019.32 1227.95" fill="white"/>
<path d="M3362.75 1449.24C3362.75 1449.24 3361.19 1435.37 3359.82 1432.79C3358.48 1430.2 3361.86 1429.45 3364.74 1435.37C3367.64 1441.31 3373.4 1439.52 3376.31 1445.39C3379.19 1451.24 3376.64 1452.8 3373.07 1452.45C3369.51 1452.11 3362.75 1449.24 3362.75 1449.24Z" fill="#FFB27D"/>
<path d="M3014.38 1417.39C3014.38 1417.39 3022.16 1408.84 3022.1 1405.03C3022.07 1401.2 3027.55 1391.75 3026.02 1390.03C3024.48 1388.3 3021.79 1391.06 3020.34 1393.64C3018.89 1396.23 3012.95 1396.07 3011.59 1403.14C3010.24 1410.2 3014.38 1417.39 3014.38 1417.39" fill="#FFB27D"/>
<path d="M1783.75 1373.55L1985.02 1463.09V1383.41L1880.15 1339.61L1985.02 1295.81V1216.88L1783.75 1306.43V1373.55Z" fill="#B5C3C2"/>
<path d="M2170.08 1161.69L1996.17 1530.96H2069.67L2243.6 1161.69H2170.08Z" fill="#B5C3C2"/>
<path d="M2257.06 1216.87V1296.55L2361.94 1340.36L2257.06 1384.16V1463.09L2458.34 1373.54V1306.42L2257.06 1216.87" fill="#B5C3C2"/>
<path d="M1996.16 1530.96V1509.87H2069.67V1530.96H1996.16Z" fill="#B5C3C2"/>
<path d="M2243.6 1140.59V1161.69H2209.26V1140.61L2243.6 1140.59Z" fill="#B5C3C2"/>
<path d="M1783.75 1352.47L1985.02 1442.01V1362.33L1880.15 1318.53L1985.02 1274.72V1195.79L1783.75 1285.33V1352.47Z" fill="#658280"/>
<path d="M2170.08 1140.59L1996.17 1509.86H2069.67L2243.6 1140.59H2170.08Z" fill="#658280"/>
<path d="M2257.06 1195.78V1275.46L2361.94 1319.27L2257.06 1363.08V1442.01L2458.34 1352.46V1285.34L2257.06 1195.78" fill="#658280"/>
<path d="M2912.58 1940.04H2900.32L2799.99 1551.19L2671.01 1051.32H1230.66L1448.85 1940.04L1433.28 1940.2L1212.46 1039.25L2681.15 1037.96L2682.43 1042.93L2811.37 1545.49L2912.58 1940.04" fill="#BCBCBC"/>
<path d="M2914.8 1948.71L2902.98 1950.32L2800 1551.19L2811.37 1545.49L2914.8 1948.71" fill="#BCBCBC"/>
<path d="M1436.48 1260.68C1433.81 1263.81 1433.45 1267.31 1434.79 1271.05L1434.82 1271.11C1437.27 1278.01 1445.41 1285.72 1454.86 1293.43C1456.06 1294.43 1457.13 1295.32 1458.08 1296.16C1458.31 1296.37 1458.56 1296.59 1458.8 1296.81C1458.98 1296.99 1459.17 1297.16 1459.35 1297.32C1468.16 1305.57 1464.84 1307.45 1480.67 1324.2C1498.72 1343.27 1511.14 1343.61 1514.67 1341.87C1517.66 1340.39 1511.58 1330.28 1504.86 1318.91C1504.53 1318.36 1504.21 1317.8 1503.88 1317.25C1502.99 1315.75 1502.09 1314.2 1501.2 1312.68C1493.31 1299 1495.33 1292.59 1497.21 1272.23C1498.72 1255.68 1522.54 1179.79 1522.54 1179.79L1487.97 1173.73C1487.97 1173.73 1477.56 1234.16 1466.09 1243.48C1459.94 1248.44 1453.08 1248.49 1447.18 1252.17C1446.76 1252.43 1446.36 1252.69 1445.95 1252.96C1442.6 1255.21 1439.19 1257.55 1436.48 1260.68" fill="#FFB27D"/>
<path d="M1436.48 1260.68C1433.81 1263.81 1433.45 1267.31 1434.79 1271.05L1434.82 1271.11C1437.82 1278 1445.75 1285.68 1454.89 1293.36C1456.08 1294.36 1457.13 1295.29 1458.08 1296.16C1458.31 1296.37 1458.56 1296.59 1458.8 1296.81C1458.98 1296.99 1459.17 1297.16 1459.35 1297.32C1468.16 1305.57 1464.84 1307.45 1480.67 1324.2C1498.72 1343.27 1511.14 1343.61 1514.67 1341.87C1517.66 1340.39 1511.58 1330.28 1504.86 1318.91C1501.34 1317.6 1485.03 1310.87 1472.69 1294.84C1461.82 1280.75 1454.57 1262.65 1447.18 1252.17C1446.76 1252.43 1446.36 1252.69 1445.95 1252.96C1442.6 1255.21 1439.19 1257.55 1436.48 1260.68" fill="#233862"/>
<path d="M1715.33 1238.75C1717.47 1249.59 1732.68 1247.79 1749.68 1243.56C1766.68 1239.35 1762.64 1244.36 1786.83 1241.64C1811.03 1238.92 1818.36 1229.76 1819.1 1226.11C1819.75 1222.85 1807.81 1221.72 1794.98 1220.21C1793.37 1220.03 1791.75 1219.83 1790.13 1219.63C1775.65 1217.79 1765.05 1208.29 1751.9 1200.49C1739.44 1193.12 1720.86 1163.04 1720.86 1163.04L1687.67 1165.72C1687.67 1165.72 1705.09 1192.57 1711.82 1204.25C1715.79 1211.12 1715.58 1220.2 1715.08 1227.21C1714.82 1231.03 1714.58 1234.93 1715.33 1238.75" fill="#FFB27D"/>
<path d="M1749.68 1243.56C1766.68 1239.35 1762.64 1244.36 1786.83 1241.64C1811.03 1238.92 1818.36 1229.76 1819.1 1226.11C1819.75 1222.85 1807.81 1221.72 1794.98 1220.21L1794.87 1220.47C1794.87 1220.47 1780.35 1230.92 1760.21 1231.4C1743.8 1231.81 1726.41 1227.03 1715.08 1227.21C1714.82 1231.03 1714.58 1234.93 1715.33 1238.75C1717.47 1249.59 1732.68 1247.79 1749.68 1243.56Z" fill="#233862"/>
<path d="M1588.18 1023.25L1557.16 1108.03L1516.66 1218.72C1516.66 1218.72 1505.68 1219.8 1495.16 1216.72C1485.47 1213.88 1474.36 1206.44 1474.36 1206.44C1474.36 1206.44 1485.59 1087.59 1506.57 1019.36C1511.95 1001.85 1517.98 987.679 1524.62 979.706C1557.13 940.679 1588.18 1023.25 1588.18 1023.25" fill="#808080"/>
<path d="M1556.65 888.626C1536.33 881.96 1478.37 890.506 1420.15 902.093L1407.96 881.666L1282.21 871.693C1282.21 871.693 1240.71 965.16 1263.43 1024.72C1266.77 1033.47 1273.4 1039.08 1284.71 1039.27H1286.55C1286.55 1039.27 1361.4 1039.23 1385.69 1039.23C1448.23 1039.23 1518.04 995.56 1527.07 993.72C1541.87 990.72 1547.78 1020.75 1562.56 1052.28C1577.34 1083.81 1701.51 1191.92 1701.51 1191.92C1701.51 1191.92 1720.59 1192.11 1728.48 1189.11C1736.96 1185.88 1740.06 1181.68 1740.06 1181.68C1740.06 1181.68 1602.48 903.64 1556.65 888.626Z" fill="#808080"/>
<path d="M1366.29 492.836C1348.67 488.226 1324.54 492.81 1320.56 493.211C1272.7 497.995 1256.63 552.216 1263.87 594.274C1270.55 633.085 1251.17 643.83 1228.7 674.489C1183.66 735.966 1213.1 787.795 1248.65 801.159C1269.97 809.178 1299.58 788.957 1299.58 788.957C1300.11 789.171 1392.61 727.4 1430.52 692.585C1493.68 667.486 1411.2 504.571 1366.29 492.836" fill="#2F2E41"/>
<path d="M1373.36 670.64C1374.62 675.133 1353.69 683.4 1337.72 680.36C1322.69 677.52 1305.83 659.64 1309.31 657.96C1315.06 655.186 1318.93 648.28 1315.78 610.96L1318.64 611.28L1366.74 616.866C1366.74 616.866 1366.88 632.08 1368 646.333C1368.93 658.293 1371.31 663.306 1373.36 670.64" fill="#FFB27D"/>
<path d="M1366.74 616.866C1366.74 616.866 1366.88 632.079 1368 646.333C1341.46 647.773 1325.48 624.413 1318.64 611.279L1366.74 616.866Z" fill="#ED975D"/>
<path d="M1376.66 629.613C1376.66 629.613 1314.1 635.88 1310.86 596.253C1307.61 556.613 1297.35 530.733 1337.16 525.053C1376.98 519.373 1385.98 533.84 1390.24 546.8C1394.49 559.76 1392.86 626.96 1376.66 629.613Z" fill="#FFB27D"/>
<path d="M1369.97 518.8C1369.97 518.8 1362.08 567.213 1326.45 578.706C1300.46 587.093 1288.68 581.56 1288.68 581.56C1288.68 581.56 1301.2 564.706 1305.64 541.28C1306.95 534.373 1311.79 528.68 1318.37 526.493C1336.84 520.32 1359.22 503.44 1369.97 518.8" fill="#2F2E41"/>
<path d="M1358.17 529.12C1358.17 529.12 1369.97 531.786 1380.42 547.24C1386.13 555.693 1392.73 576.973 1391.6 586.413C1391.6 586.413 1402.56 541.586 1386.59 524.92C1369.65 507.24 1358.17 529.12 1358.17 529.12" fill="#2F2E41"/>
<path d="M1260.7 800.84C1261.81 805.653 1262.77 810.08 1263.54 814.173C1264.82 820.76 1265.69 826.44 1266.31 831.453C1268.22 847.093 1267.65 856.346 1268.94 866.48C1269.66 872.146 1270.97 878.093 1273.62 885.546C1276.21 892.813 1344.2 899.28 1382.89 896.68C1395.16 895.866 1404.52 894.106 1407.84 891.2C1421.64 879.026 1420.27 905.8 1422.16 777.693C1423.08 715.2 1369.96 659.546 1369.96 659.546C1369.96 659.546 1365.72 686.24 1313.04 654.48C1311.17 653.36 1290.42 684.56 1270.45 722.986C1248.45 765.426 1254.49 774.413 1260.7 800.84Z" fill="black"/>
<path d="M1557.16 1108.03L1516.66 1218.72C1516.66 1218.72 1505.68 1219.8 1495.16 1216.72C1485.47 1213.88 1474.36 1206.44 1474.36 1206.44C1474.36 1206.44 1485.59 1087.59 1506.57 1019.36L1557.16 1108.03Z" fill="#808080"/>
<path d="M1369.97 659.546C1369.97 659.546 1424.17 668.88 1430.52 692.573C1436.89 716.28 1480.87 848.853 1480.87 848.853C1480.87 848.853 1446.8 860.666 1434.07 847.733C1421.33 834.8 1389.78 727.773 1389.78 727.773L1369.97 659.546Z" fill="black"/>
<path d="M1590.92 818.386L1603.76 813.213C1603.76 813.213 1611.48 811.48 1615.66 812.813C1619.83 814.146 1630.27 814 1630.32 815.746C1630.37 817.48 1618.43 822.893 1618.43 822.893L1618.04 822.746C1622.59 833.186 1645.28 839.146 1646.39 842.973C1647.71 847.613 1637.14 850.013 1631.39 851.466C1625.64 852.92 1611.55 852.773 1604.59 845.333C1599.52 839.88 1590.92 832.4 1590.92 832.4V818.386" fill="#FFB27D"/>
<path d="M1465.76 803.04L1596.99 813.213C1596.99 813.213 1599.73 826.146 1591.27 840.8C1591.27 840.8 1472.89 864.306 1441.98 852.306C1411.1 840.293 1414.57 783.68 1414.57 783.68L1465.76 803.04" fill="#F99746"/>
<path d="M1266.31 831.453C1268.22 847.093 1267.65 856.346 1268.94 866.48C1318.16 866.64 1383.95 827.88 1383.95 827.88L1266.31 831.453" fill="black"/>
<path d="M1383.95 795.093C1383.95 795.093 1307.29 792.773 1294.36 748.506C1280.16 699.88 1264.26 768.506 1264.26 768.506L1272.72 812.306H1356.84L1383.95 795.093" fill="black"/>
<path d="M1517.61 674.986L1513.47 664.56C1509.02 653.386 1498.35 646.08 1486.48 646.08H1410.06V695.333V905.64H1726.22V695.333H1547.32C1534.25 695.333 1522.51 687.28 1517.61 674.986Z" fill="#658280"/>
<path d="M1457.75 803.92V785.2L1522.36 756.453V775.573L1477.23 794.426L1522.36 813.266V832.666L1457.75 803.92Z" fill="white"/>
<path d="M1589.49 734.093H1606.72L1547.58 859.64H1530.37L1589.49 734.093Z" fill="white"/>
<path d="M1678.53 785.2V803.92L1613.92 832.666V813.546L1659.04 794.693L1613.92 775.853V756.453L1678.53 785.2" fill="white"/>
<path d="M1383.95 805.36L1389.49 796.506C1389.49 796.506 1393.89 795.053 1400.04 790.666C1407.37 785.44 1406.4 777.613 1410.06 778.453L1410.1 795.64L1409.7 795.706C1425.42 799.96 1443.8 795.333 1444.16 799.306C1445.17 810.24 1436.85 815.16 1429.87 818.586C1424.54 821.2 1418.47 825.133 1408.83 822.08C1401.78 819.853 1390.68 817.586 1390.68 817.586L1383.95 805.36Z" fill="#FFB27D"/>
<path d="M1313.04 654.48C1313.04 654.48 1263.26 657.786 1250.82 677.506C1238.38 697.226 1222.95 797.32 1229.42 831.706C1235.89 866.08 1395.26 825.133 1395.26 825.133L1390.18 795.306C1390.18 795.306 1298.21 795.84 1292.96 783.68C1285.99 767.493 1313.04 654.48 1313.04 654.48" fill="black"/>
<path d="M1553.28 695.226C1552.85 696.533 1560.76 709.773 1572.06 707.48C1579.11 706.04 1588.27 690.626 1580.23 687.226C1566.8 681.56 1554.42 691.72 1553.28 695.226" fill="#FFB27D"/>
<path d="M3429.39 1250.02L3426.53 1284.41L3303.37 1327.34L3306.3 1292.21L3392.12 1264.48L3312.07 1222.93L3315.04 1187.3L3429.39 1250.02" fill="white"/>
<path d="M3241.24 1151L3159 1325H3193.76L3276 1151H3241.24Z" fill="white"/>
</svg>
