<svg width="127" height="45" viewBox="0 0 127 45" fill="none" xmlns="http://www.w3.org/2000/svg">
<path d="M10.8066 14.2217H4.61914V18.4111H11.8809V21H1.39648V5.35938H11.8594V7.96973H4.61914V11.6973H10.8066V14.2217ZM16.9941 18.4111H23.8369V21H13.7715V5.35938H16.9941V18.4111ZM28.918 18.4111H35.7607V21H25.6953V5.35938H28.918V18.4111ZM46.6641 17.7773H41.0137L39.9395 21H36.5127L42.335 5.35938H45.3213L51.1758 21H47.749L46.6641 17.7773ZM41.8838 15.167H45.7939L43.8281 9.3125L41.8838 15.167ZM70.4902 19.0234C69.9102 19.7181 69.0902 20.2588 68.0303 20.6455C66.9704 21.0251 65.7959 21.2148 64.5068 21.2148C63.1533 21.2148 61.9645 20.9212 60.9404 20.334C59.9235 19.7396 59.1357 18.8802 58.5771 17.7559C58.0257 16.6315 57.7428 15.3102 57.7285 13.792V12.7285C57.7285 11.1673 57.9899 9.81738 58.5127 8.67871C59.0426 7.53288 59.8018 6.65918 60.79 6.05762C61.7855 5.44889 62.9492 5.14453 64.2812 5.14453C66.1361 5.14453 67.5863 5.58854 68.6318 6.47656C69.6774 7.35742 70.2969 8.6429 70.4902 10.333H67.3535C67.2103 9.43783 66.8916 8.78255 66.3975 8.36719C65.9105 7.95182 65.2373 7.74414 64.3779 7.74414C63.2822 7.74414 62.4479 8.15592 61.875 8.97949C61.3021 9.80306 61.012 11.0277 61.0049 12.6533V13.6523C61.0049 15.2923 61.3164 16.5312 61.9395 17.3691C62.5625 18.207 63.4756 18.626 64.6787 18.626C65.889 18.626 66.752 18.3682 67.2676 17.8525V15.1562H64.335V12.7822H70.4902V19.0234ZM85.959 13.5342C85.959 15.0739 85.6868 16.4238 85.1426 17.584C84.5983 18.7441 83.8177 19.6393 82.8008 20.2695C81.791 20.8997 80.6309 21.2148 79.3203 21.2148C78.0241 21.2148 76.8675 20.9033 75.8506 20.2803C74.8337 19.6572 74.0459 18.7692 73.4873 17.6162C72.9287 16.4561 72.6458 15.124 72.6387 13.6201V12.8467C72.6387 11.307 72.9144 9.95345 73.4658 8.78613C74.0244 7.61165 74.8086 6.71289 75.8184 6.08984C76.8353 5.45964 77.9954 5.14453 79.2988 5.14453C80.6022 5.14453 81.7588 5.45964 82.7686 6.08984C83.7855 6.71289 84.5697 7.61165 85.1211 8.78613C85.6797 9.95345 85.959 11.3034 85.959 12.8359V13.5342ZM82.6934 12.8252C82.6934 11.1852 82.3997 9.93913 81.8125 9.08691C81.2253 8.2347 80.3874 7.80859 79.2988 7.80859C78.2174 7.80859 77.3831 8.23112 76.7959 9.07617C76.2087 9.91406 75.9115 11.1458 75.9043 12.7715V13.5342C75.9043 15.1312 76.1979 16.3701 76.7852 17.251C77.3724 18.1318 78.2174 18.5723 79.3203 18.5723C80.4017 18.5723 81.2324 18.1497 81.8125 17.3047C82.3926 16.4525 82.6862 15.2135 82.6934 13.5879V12.8252ZM91.5234 15.4893V21H88.3008V5.35938H94.4023C95.5768 5.35938 96.6081 5.57422 97.4961 6.00391C98.3913 6.43359 99.0788 7.0459 99.5586 7.84082C100.038 8.62858 100.278 9.52734 100.278 10.5371C100.278 12.0697 99.752 13.2799 98.6992 14.168C97.6536 15.0488 96.2035 15.4893 94.3486 15.4893H91.5234ZM91.5234 12.8789H94.4023C95.2546 12.8789 95.9027 12.6784 96.3467 12.2773C96.7979 11.8763 97.0234 11.3034 97.0234 10.5586C97.0234 9.79232 96.7979 9.17285 96.3467 8.7002C95.8955 8.22754 95.2725 7.98405 94.4775 7.96973H91.5234V12.8789ZM111.912 14.2217H105.725V18.4111H112.986V21H102.502V5.35938H112.965V7.96973H105.725V11.6973H111.912V14.2217ZM118.293 18.4111H126.178V21H114.265V19.1094L121.999 7.96973H114.275V5.35938H126.006V7.20703L118.293 18.4111Z" fill="#5D5D5D"/>
<path d="M5.2207 36.2263H1.93896V39.6799H0.907715V31.8596H5.75244V32.7082H1.93896V35.383H5.2207V36.2263ZM10.296 36.5163H8.45904V39.6799H7.42242V31.8596H10.0113C10.8921 31.8596 11.5689 32.0601 12.0416 32.4612C12.5178 32.8622 12.7559 33.4459 12.7559 34.2121C12.7559 34.6991 12.6234 35.1234 12.3585 35.4851C12.0971 35.8467 11.7318 36.1171 11.2628 36.2961L13.0997 39.6154V39.6799H11.9932L10.296 36.5163ZM8.45904 35.6731H10.0435C10.5556 35.6731 10.962 35.5406 11.2628 35.2756C11.5671 35.0106 11.7193 34.6561 11.7193 34.2121C11.7193 33.7287 11.5743 33.3581 11.2842 33.1003C10.9978 32.8425 10.5824 32.7118 10.0381 32.7082H8.45904V35.6731ZM20.6617 36.0222C20.6617 36.7885 20.5328 37.4581 20.275 38.031C20.0172 38.6003 19.652 39.0354 19.1793 39.3362C18.7067 39.6369 18.1552 39.7873 17.525 39.7873C16.9091 39.7873 16.3631 39.6369 15.8868 39.3362C15.4106 39.0318 15.04 38.6003 14.775 38.0417C14.5136 37.4795 14.3793 36.8296 14.3722 36.092V35.528C14.3722 34.7761 14.5029 34.1119 14.7643 33.5354C15.0257 32.9589 15.3945 32.5184 15.8707 32.2141C16.3505 31.9061 16.8984 31.7522 17.5143 31.7522C18.1409 31.7522 18.6923 31.9043 19.1686 32.2087C19.6484 32.5095 20.0172 32.9481 20.275 33.5246C20.5328 34.0975 20.6617 34.7654 20.6617 35.528V36.0222ZM19.6359 35.5173C19.6359 34.5899 19.4497 33.8791 19.0773 33.385C18.7049 32.8873 18.1839 32.6384 17.5143 32.6384C16.8626 32.6384 16.3488 32.8873 15.9728 33.385C15.6004 33.8791 15.4088 34.5666 15.3981 35.4475V36.0222C15.3981 36.9209 15.5861 37.6281 15.962 38.1438C16.3416 38.6558 16.8626 38.9118 17.525 38.9118C18.191 38.9118 18.7067 38.6701 19.0719 38.1867C19.4371 37.6998 19.6251 37.0033 19.6359 36.0974V35.5173ZM28.6589 39.6799H27.6222L23.6852 33.6535V39.6799H22.6486V31.8596H23.6852L27.633 37.9128V31.8596H28.6589V39.6799ZM36.1726 32.7082H33.6589V39.6799H32.633V32.7082H30.1247V31.8596H36.1726V32.7082ZM42.1932 36.0652H38.804V38.8366H42.741V39.6799H37.7728V31.8596H42.6873V32.7082H38.804V35.2219H42.1932V36.0652ZM50.475 39.6799H49.4383L45.5013 33.6535V39.6799H44.4647V31.8596H45.5013L49.4491 37.9128V31.8596H50.475V39.6799ZM52.7465 39.6799V31.8596H54.954C55.6344 31.8596 56.2359 32.01 56.7587 32.3108C57.2815 32.6115 57.6843 33.0394 57.9672 33.5945C58.2537 34.1495 58.3987 34.7868 58.4023 35.5066V36.0061C58.4023 36.7437 58.259 37.39 57.9726 37.945C57.6897 38.5001 57.2833 38.9262 56.7533 39.2234C56.227 39.5206 55.6129 39.6727 54.9111 39.6799H52.7465ZM53.7778 32.7082V38.8366H54.8627C55.6576 38.8366 56.2753 38.5896 56.7157 38.0954C57.1598 37.6013 57.3818 36.8977 57.3818 35.9846V35.528C57.3818 34.64 57.1723 33.9507 56.7533 33.4602C56.338 32.966 55.7472 32.7154 54.9809 32.7082H53.7778ZM63.5738 39.6799V31.8596H65.7813C66.4616 31.8596 67.0632 32.01 67.586 32.3108C68.1088 32.6115 68.5116 33.0394 68.7945 33.5945C69.0809 34.1495 69.2259 34.7868 69.2295 35.5066V36.0061C69.2295 36.7437 69.0863 37.39 68.7998 37.945C68.517 38.5001 68.1106 38.9262 67.5806 39.2234C67.0542 39.5206 66.4401 39.6727 65.7383 39.6799H63.5738ZM64.605 32.7082V38.8366H65.69C66.4849 38.8366 67.1026 38.5896 67.543 38.0954C67.987 37.6013 68.209 36.8977 68.209 35.9846V35.528C68.209 34.64 67.9995 33.9507 67.5806 33.4602C67.1652 32.966 66.5744 32.7154 65.8081 32.7082H64.605ZM75.6529 36.0652H72.2638V38.8366H76.2008V39.6799H71.2325V31.8596H76.1471V32.7082H72.2638V35.2219H75.6529V36.0652ZM80.5133 38.3103L82.7477 31.8596H83.8756L80.9753 39.6799H80.0622L77.1671 31.8596H78.2897L80.5133 38.3103ZM89.7888 36.0652H86.3996V38.8366H90.3366V39.6799H85.3684V31.8596H90.2829V32.7082H86.3996V35.2219H89.7888V36.0652ZM93.097 38.8366H96.803V39.6799H92.0603V31.8596H93.097V38.8366ZM104.08 36.0222C104.08 36.7885 103.952 37.4581 103.694 38.031C103.436 38.6003 103.071 39.0354 102.598 39.3362C102.125 39.6369 101.574 39.7873 100.944 39.7873C100.328 39.7873 99.7817 39.6369 99.3055 39.3362C98.8293 39.0318 98.4587 38.6003 98.1937 38.0417C97.9323 37.4795 97.798 36.8296 97.7909 36.092V35.528C97.7909 34.7761 97.9216 34.1119 98.183 33.5354C98.4443 32.9589 98.8132 32.5184 99.2894 32.2141C99.7692 31.9061 100.317 31.7522 100.933 31.7522C101.56 31.7522 102.111 31.9043 102.587 32.2087C103.067 32.5095 103.436 32.9481 103.694 33.5246C103.952 34.0975 104.08 34.7654 104.08 35.528V36.0222ZM103.055 35.5173C103.055 34.5899 102.868 33.8791 102.496 33.385C102.124 32.8873 101.603 32.6384 100.933 32.6384C100.281 32.6384 99.7674 32.8873 99.3914 33.385C99.0191 33.8791 98.8275 34.5666 98.8167 35.4475V36.0222C98.8167 36.9209 99.0047 37.6281 99.3807 38.1438C99.7603 38.6558 100.281 38.9118 100.944 38.9118C101.61 38.9118 102.125 38.6701 102.491 38.1867C102.856 37.6998 103.044 37.0033 103.055 36.0974V35.5173ZM107.099 36.6184V39.6799H106.067V31.8596H108.952C109.807 31.8596 110.477 32.078 110.96 32.5149C111.447 32.9517 111.691 33.53 111.691 34.2497C111.691 35.0088 111.453 35.5943 110.976 36.0061C110.504 36.4143 109.825 36.6184 108.941 36.6184H107.099ZM107.099 35.7751H108.952C109.503 35.7751 109.926 35.6462 110.219 35.3884C110.513 35.127 110.66 34.751 110.66 34.2605C110.66 33.795 110.513 33.4226 110.219 33.1433C109.926 32.864 109.523 32.719 109.011 32.7082H107.099V35.7751ZM117.867 36.0652H114.478V38.8366H118.415V39.6799H113.447V31.8596H118.361V32.7082H114.478V35.2219H117.867V36.0652ZM123.007 36.5163H121.17V39.6799H120.133V31.8596H122.722C123.603 31.8596 124.28 32.0601 124.752 32.4612C125.229 32.8622 125.467 33.4459 125.467 34.2121C125.467 34.6991 125.334 35.1234 125.069 35.4851C124.808 35.8467 124.443 36.1171 123.974 36.2961L125.811 39.6154V39.6799H124.704L123.007 36.5163ZM121.17 35.6731H122.754C123.266 35.6731 123.673 35.5406 123.974 35.2756C124.278 35.0106 124.43 34.6561 124.43 34.2121C124.43 33.7287 124.285 33.3581 123.995 33.1003C123.709 32.8425 123.293 32.7118 122.749 32.7082H121.17V35.6731Z" fill="#5D5D5D"/>
</svg>
